<mxfile host="Electron" agent="Mozilla/5.0 (Windows NT 10.0; Win64; x64) AppleWebKit/537.36 (KHTML, like Gecko) draw.io/24.7.17 Chrome/128.0.6613.36 Electron/32.0.1 Safari/537.36" version="24.7.17" pages="3">
  <diagram name="元数据行" id="aCl9ZhKFC_bxHveetNq9">
    <mxGraphModel dx="1434" dy="836" grid="1" gridSize="10" guides="1" tooltips="1" connect="1" arrows="1" fold="1" page="1" pageScale="1" pageWidth="827" pageHeight="1169" math="0" shadow="0">
      <root>
        <mxCell id="0" />
        <mxCell id="1" parent="0" />
        <mxCell id="KTZ9LP8JTRNSwxRCOS-B-1" value="" style="group" parent="1" vertex="1" connectable="0">
          <mxGeometry x="94" y="160" width="640" height="120" as="geometry" />
        </mxCell>
        <mxCell id="YxzUP9CEqB-BbSKybJcW-3" value="" style="group" parent="KTZ9LP8JTRNSwxRCOS-B-1" vertex="1" connectable="0">
          <mxGeometry width="50" height="60" as="geometry" />
        </mxCell>
        <mxCell id="YxzUP9CEqB-BbSKybJcW-1" value="Type" style="rounded=0;whiteSpace=wrap;html=1;" parent="YxzUP9CEqB-BbSKybJcW-3" vertex="1">
          <mxGeometry y="20" width="50" height="40" as="geometry" />
        </mxCell>
        <mxCell id="YxzUP9CEqB-BbSKybJcW-2" value="1 byte" style="text;html=1;align=center;verticalAlign=middle;whiteSpace=wrap;rounded=0;" parent="YxzUP9CEqB-BbSKybJcW-3" vertex="1">
          <mxGeometry width="50" height="20" as="geometry" />
        </mxCell>
        <mxCell id="YxzUP9CEqB-BbSKybJcW-4" value="" style="group" parent="KTZ9LP8JTRNSwxRCOS-B-1" vertex="1" connectable="0">
          <mxGeometry x="550" width="90" height="60" as="geometry" />
        </mxCell>
        <mxCell id="YxzUP9CEqB-BbSKybJcW-5" value="Name Length" style="rounded=0;whiteSpace=wrap;html=1;" parent="YxzUP9CEqB-BbSKybJcW-4" vertex="1">
          <mxGeometry y="20" width="90" height="40" as="geometry" />
        </mxCell>
        <mxCell id="YxzUP9CEqB-BbSKybJcW-6" value="1 byte" style="text;html=1;align=center;verticalAlign=middle;whiteSpace=wrap;rounded=0;" parent="YxzUP9CEqB-BbSKybJcW-4" vertex="1">
          <mxGeometry width="90" height="20" as="geometry" />
        </mxCell>
        <mxCell id="YxzUP9CEqB-BbSKybJcW-10" value="" style="group" parent="KTZ9LP8JTRNSwxRCOS-B-1" vertex="1" connectable="0">
          <mxGeometry x="50" width="70" height="60" as="geometry" />
        </mxCell>
        <mxCell id="YxzUP9CEqB-BbSKybJcW-11" value="Attribute" style="rounded=0;whiteSpace=wrap;html=1;" parent="YxzUP9CEqB-BbSKybJcW-10" vertex="1">
          <mxGeometry y="20" width="70" height="40" as="geometry" />
        </mxCell>
        <mxCell id="YxzUP9CEqB-BbSKybJcW-12" value="1 byte" style="text;html=1;align=center;verticalAlign=middle;whiteSpace=wrap;rounded=0;" parent="YxzUP9CEqB-BbSKybJcW-10" vertex="1">
          <mxGeometry width="70" height="20" as="geometry" />
        </mxCell>
        <mxCell id="YxzUP9CEqB-BbSKybJcW-16" value="" style="group" parent="KTZ9LP8JTRNSwxRCOS-B-1" vertex="1" connectable="0">
          <mxGeometry y="60" width="640" height="60" as="geometry" />
        </mxCell>
        <mxCell id="YxzUP9CEqB-BbSKybJcW-15" value="n bytes" style="text;html=1;align=center;verticalAlign=middle;whiteSpace=wrap;rounded=0;" parent="YxzUP9CEqB-BbSKybJcW-16" vertex="1">
          <mxGeometry y="40" width="640" height="20" as="geometry" />
        </mxCell>
        <mxCell id="YxzUP9CEqB-BbSKybJcW-14" value="Name" style="rounded=0;whiteSpace=wrap;html=1;" parent="YxzUP9CEqB-BbSKybJcW-16" vertex="1">
          <mxGeometry width="640" height="40" as="geometry" />
        </mxCell>
        <mxCell id="YxzUP9CEqB-BbSKybJcW-17" value="" style="group" parent="KTZ9LP8JTRNSwxRCOS-B-1" vertex="1" connectable="0">
          <mxGeometry x="120" width="70" height="60" as="geometry" />
        </mxCell>
        <mxCell id="YxzUP9CEqB-BbSKybJcW-18" value="DBID" style="rounded=0;whiteSpace=wrap;html=1;" parent="YxzUP9CEqB-BbSKybJcW-17" vertex="1">
          <mxGeometry y="20" width="70" height="40" as="geometry" />
        </mxCell>
        <mxCell id="YxzUP9CEqB-BbSKybJcW-19" value="1 byte" style="text;html=1;align=center;verticalAlign=middle;whiteSpace=wrap;rounded=0;" parent="YxzUP9CEqB-BbSKybJcW-17" vertex="1">
          <mxGeometry width="70" height="20" as="geometry" />
        </mxCell>
        <mxCell id="YxzUP9CEqB-BbSKybJcW-20" value="" style="group" parent="KTZ9LP8JTRNSwxRCOS-B-1" vertex="1" connectable="0">
          <mxGeometry x="190" width="70" height="60" as="geometry" />
        </mxCell>
        <mxCell id="YxzUP9CEqB-BbSKybJcW-21" value="TBID" style="rounded=0;whiteSpace=wrap;html=1;" parent="YxzUP9CEqB-BbSKybJcW-20" vertex="1">
          <mxGeometry y="20" width="70" height="40" as="geometry" />
        </mxCell>
        <mxCell id="YxzUP9CEqB-BbSKybJcW-22" value="4 bytes" style="text;html=1;align=center;verticalAlign=middle;whiteSpace=wrap;rounded=0;" parent="YxzUP9CEqB-BbSKybJcW-20" vertex="1">
          <mxGeometry width="70" height="20" as="geometry" />
        </mxCell>
        <mxCell id="YxzUP9CEqB-BbSKybJcW-23" value="" style="group" parent="KTZ9LP8JTRNSwxRCOS-B-1" vertex="1" connectable="0">
          <mxGeometry x="260" width="70" height="60" as="geometry" />
        </mxCell>
        <mxCell id="YxzUP9CEqB-BbSKybJcW-24" value="COLID" style="rounded=0;whiteSpace=wrap;html=1;" parent="YxzUP9CEqB-BbSKybJcW-23" vertex="1">
          <mxGeometry y="20" width="70" height="40" as="geometry" />
        </mxCell>
        <mxCell id="YxzUP9CEqB-BbSKybJcW-25" value="4 bytes" style="text;html=1;align=center;verticalAlign=middle;whiteSpace=wrap;rounded=0;" parent="YxzUP9CEqB-BbSKybJcW-23" vertex="1">
          <mxGeometry width="70" height="20" as="geometry" />
        </mxCell>
        <mxCell id="YxzUP9CEqB-BbSKybJcW-26" value="" style="group" parent="KTZ9LP8JTRNSwxRCOS-B-1" vertex="1" connectable="0">
          <mxGeometry x="330" width="70" height="60" as="geometry" />
        </mxCell>
        <mxCell id="YxzUP9CEqB-BbSKybJcW-27" value="MetaType" style="rounded=0;whiteSpace=wrap;html=1;" parent="YxzUP9CEqB-BbSKybJcW-26" vertex="1">
          <mxGeometry y="20" width="70" height="40" as="geometry" />
        </mxCell>
        <mxCell id="YxzUP9CEqB-BbSKybJcW-28" value="2 bytes" style="text;html=1;align=center;verticalAlign=middle;whiteSpace=wrap;rounded=0;" parent="YxzUP9CEqB-BbSKybJcW-26" vertex="1">
          <mxGeometry width="70" height="20" as="geometry" />
        </mxCell>
        <mxCell id="_L1Z3VdKRaBSGYKFcvA--1" value="" style="group" parent="KTZ9LP8JTRNSwxRCOS-B-1" vertex="1" connectable="0">
          <mxGeometry x="400" width="80" height="60" as="geometry" />
        </mxCell>
        <mxCell id="_L1Z3VdKRaBSGYKFcvA--2" value="Length" style="rounded=0;whiteSpace=wrap;html=1;" parent="_L1Z3VdKRaBSGYKFcvA--1" vertex="1">
          <mxGeometry y="20" width="80" height="40" as="geometry" />
        </mxCell>
        <mxCell id="_L1Z3VdKRaBSGYKFcvA--3" value="1 byte" style="text;html=1;align=center;verticalAlign=middle;whiteSpace=wrap;rounded=0;" parent="_L1Z3VdKRaBSGYKFcvA--1" vertex="1">
          <mxGeometry width="80" height="20" as="geometry" />
        </mxCell>
        <mxCell id="3Y9a6YtfwixAJiCVAPA2-1" value="" style="group" parent="KTZ9LP8JTRNSwxRCOS-B-1" vertex="1" connectable="0">
          <mxGeometry x="480" width="70" height="60" as="geometry" />
        </mxCell>
        <mxCell id="3Y9a6YtfwixAJiCVAPA2-2" value="Bind" style="rounded=0;whiteSpace=wrap;html=1;" parent="3Y9a6YtfwixAJiCVAPA2-1" vertex="1">
          <mxGeometry y="20" width="70" height="40" as="geometry" />
        </mxCell>
        <mxCell id="3Y9a6YtfwixAJiCVAPA2-3" value="1 byte" style="text;html=1;align=center;verticalAlign=middle;whiteSpace=wrap;rounded=0;" parent="3Y9a6YtfwixAJiCVAPA2-1" vertex="1">
          <mxGeometry width="70" height="20" as="geometry" />
        </mxCell>
      </root>
    </mxGraphModel>
  </diagram>
  <diagram id="_9bwVKydZ992jfSg4voM" name="数据行">
    <mxGraphModel dx="819" dy="478" grid="1" gridSize="10" guides="1" tooltips="1" connect="1" arrows="1" fold="1" page="1" pageScale="1" pageWidth="827" pageHeight="1169" math="0" shadow="0">
      <root>
        <mxCell id="0" />
        <mxCell id="1" parent="0" />
        <mxCell id="ISg8zZYvRx51yoWdctYF-1" value="TBID" style="rounded=0;whiteSpace=wrap;html=1;" vertex="1" parent="1">
          <mxGeometry x="290" y="200" width="80" height="30" as="geometry" />
        </mxCell>
        <mxCell id="ISg8zZYvRx51yoWdctYF-2" value="4 bytes" style="text;html=1;align=center;verticalAlign=middle;whiteSpace=wrap;rounded=0;" vertex="1" parent="1">
          <mxGeometry x="290" y="180" width="80" height="20" as="geometry" />
        </mxCell>
        <mxCell id="1dKLRXK3q2tSl2Nv5kLP-1" value="DBID" style="rounded=0;whiteSpace=wrap;html=1;" vertex="1" parent="1">
          <mxGeometry x="210" y="200" width="80" height="30" as="geometry" />
        </mxCell>
        <mxCell id="CUCBqBfhwanHXqXcmnOs-1" value="1 byte" style="text;html=1;align=center;verticalAlign=middle;whiteSpace=wrap;rounded=0;" vertex="1" parent="1">
          <mxGeometry x="210" y="180" width="80" height="20" as="geometry" />
        </mxCell>
        <mxCell id="zvrV1pmwMDFklJIZR0SB-1" value="Column Count" style="rounded=0;whiteSpace=wrap;html=1;" vertex="1" parent="1">
          <mxGeometry x="370" y="200" width="90" height="30" as="geometry" />
        </mxCell>
        <mxCell id="zvrV1pmwMDFklJIZR0SB-2" value="1 byte" style="text;html=1;align=center;verticalAlign=middle;whiteSpace=wrap;rounded=0;" vertex="1" parent="1">
          <mxGeometry x="370" y="180" width="90" height="20" as="geometry" />
        </mxCell>
        <mxCell id="gtbBU5QbaUkmqS6KVOiG-1" value="Row ID" style="rounded=0;whiteSpace=wrap;html=1;" vertex="1" parent="1">
          <mxGeometry x="460" y="200" width="90" height="30" as="geometry" />
        </mxCell>
        <mxCell id="gtbBU5QbaUkmqS6KVOiG-2" value="8 bytes" style="text;html=1;align=center;verticalAlign=middle;whiteSpace=wrap;rounded=0;" vertex="1" parent="1">
          <mxGeometry x="459" y="180" width="90" height="20" as="geometry" />
        </mxCell>
        <mxCell id="gtbBU5QbaUkmqS6KVOiG-3" value="Length" style="rounded=0;whiteSpace=wrap;html=1;" vertex="1" parent="1">
          <mxGeometry x="550" y="200" width="70" height="30" as="geometry" />
        </mxCell>
        <mxCell id="gtbBU5QbaUkmqS6KVOiG-4" value="2 bytes" style="text;html=1;align=center;verticalAlign=middle;whiteSpace=wrap;rounded=0;" vertex="1" parent="1">
          <mxGeometry x="549" y="180" width="70" height="20" as="geometry" />
        </mxCell>
        <mxCell id="amdJH6UaBt7_EOeeHcbr-1" value="Data" style="rounded=0;whiteSpace=wrap;html=1;align=right;verticalAlign=bottom;spacingRight=8;spacingBottom=8;" vertex="1" parent="1">
          <mxGeometry x="210" y="230" width="410" height="80" as="geometry" />
        </mxCell>
        <mxCell id="amdJH6UaBt7_EOeeHcbr-8" value="" style="group" vertex="1" connectable="0" parent="1">
          <mxGeometry x="294" y="245" width="240" height="50" as="geometry" />
        </mxCell>
        <mxCell id="amdJH6UaBt7_EOeeHcbr-2" value="Data Type" style="rounded=0;whiteSpace=wrap;html=1;" vertex="1" parent="amdJH6UaBt7_EOeeHcbr-8">
          <mxGeometry width="100" height="30" as="geometry" />
        </mxCell>
        <mxCell id="amdJH6UaBt7_EOeeHcbr-5" value="Data" style="rounded=0;whiteSpace=wrap;html=1;" vertex="1" parent="amdJH6UaBt7_EOeeHcbr-8">
          <mxGeometry x="180" width="60" height="30" as="geometry" />
        </mxCell>
        <mxCell id="amdJH6UaBt7_EOeeHcbr-6" value="Data Length" style="rounded=0;whiteSpace=wrap;html=1;" vertex="1" parent="amdJH6UaBt7_EOeeHcbr-8">
          <mxGeometry x="100" width="80" height="30" as="geometry" />
        </mxCell>
        <mxCell id="amdJH6UaBt7_EOeeHcbr-7" value="3 bits" style="text;html=1;align=center;verticalAlign=middle;whiteSpace=wrap;rounded=0;" vertex="1" parent="amdJH6UaBt7_EOeeHcbr-8">
          <mxGeometry y="30" width="100" height="20" as="geometry" />
        </mxCell>
        <mxCell id="amdJH6UaBt7_EOeeHcbr-10" value="5 bits" style="text;html=1;align=center;verticalAlign=middle;whiteSpace=wrap;rounded=0;" vertex="1" parent="1">
          <mxGeometry x="390" y="275" width="90" height="20" as="geometry" />
        </mxCell>
      </root>
    </mxGraphModel>
  </diagram>
  <diagram id="wupQrydZ0ngRfhdbLzmL" name="索引行">
    <mxGraphModel dx="1434" dy="836" grid="1" gridSize="10" guides="1" tooltips="1" connect="1" arrows="1" fold="1" page="1" pageScale="1" pageWidth="827" pageHeight="1169" math="0" shadow="0">
      <root>
        <mxCell id="0" />
        <mxCell id="1" parent="0" />
        <mxCell id="OZCsGSO0voIF5C8Fq-s7-1" value="TBID" style="rounded=0;whiteSpace=wrap;html=1;" vertex="1" parent="1">
          <mxGeometry x="210" y="180" width="120" height="30" as="geometry" />
        </mxCell>
        <mxCell id="YT8RDm9CvknWjEQX1qy0-5" value="" style="shape=curlyBracket;whiteSpace=wrap;html=1;rounded=1;flipH=1;labelPosition=right;verticalLabelPosition=middle;align=left;verticalAlign=middle;rotation=-90;" vertex="1" parent="1">
          <mxGeometry x="260" y="110" width="20" height="120" as="geometry" />
        </mxCell>
        <mxCell id="YT8RDm9CvknWjEQX1qy0-6" value="4 bytes" style="text;html=1;align=center;verticalAlign=middle;whiteSpace=wrap;rounded=0;" vertex="1" parent="1">
          <mxGeometry x="240" y="140" width="60" height="20" as="geometry" />
        </mxCell>
        <mxCell id="Am4axEMQy1Lc12_uIqXM-1" value="Page" style="rounded=0;whiteSpace=wrap;html=1;" vertex="1" parent="1">
          <mxGeometry x="450" y="180" width="60" height="30" as="geometry" />
        </mxCell>
        <mxCell id="Am4axEMQy1Lc12_uIqXM-2" value="" style="shape=curlyBracket;whiteSpace=wrap;html=1;rounded=1;flipH=1;labelPosition=right;verticalLabelPosition=middle;align=left;verticalAlign=middle;rotation=-90;" vertex="1" parent="1">
          <mxGeometry x="470" y="140" width="20" height="60" as="geometry" />
        </mxCell>
        <mxCell id="Am4axEMQy1Lc12_uIqXM-3" value="2 bytes" style="text;html=1;align=center;verticalAlign=middle;whiteSpace=wrap;rounded=0;" vertex="1" parent="1">
          <mxGeometry x="450" y="140" width="60" height="20" as="geometry" />
        </mxCell>
        <mxCell id="Am4axEMQy1Lc12_uIqXM-4" value="Offset" style="rounded=0;whiteSpace=wrap;html=1;" vertex="1" parent="1">
          <mxGeometry x="510" y="180" width="60" height="30" as="geometry" />
        </mxCell>
        <mxCell id="Am4axEMQy1Lc12_uIqXM-5" value="" style="shape=curlyBracket;whiteSpace=wrap;html=1;rounded=1;flipH=1;labelPosition=right;verticalLabelPosition=middle;align=left;verticalAlign=middle;rotation=-90;" vertex="1" parent="1">
          <mxGeometry x="530" y="140" width="20" height="60" as="geometry" />
        </mxCell>
        <mxCell id="Am4axEMQy1Lc12_uIqXM-6" value="2 bytes" style="text;html=1;align=center;verticalAlign=middle;whiteSpace=wrap;rounded=0;" vertex="1" parent="1">
          <mxGeometry x="510" y="140" width="60" height="20" as="geometry" />
        </mxCell>
        <mxCell id="gJWe-ne_sSHUcEHXFgjz-1" value="COLID" style="rounded=0;whiteSpace=wrap;html=1;" vertex="1" parent="1">
          <mxGeometry x="330" y="180" width="120" height="30" as="geometry" />
        </mxCell>
        <mxCell id="gJWe-ne_sSHUcEHXFgjz-2" value="" style="shape=curlyBracket;whiteSpace=wrap;html=1;rounded=1;flipH=1;labelPosition=right;verticalLabelPosition=middle;align=left;verticalAlign=middle;rotation=-90;" vertex="1" parent="1">
          <mxGeometry x="380" y="110" width="20" height="120" as="geometry" />
        </mxCell>
        <mxCell id="gJWe-ne_sSHUcEHXFgjz-3" value="4 bytes" style="text;html=1;align=center;verticalAlign=middle;whiteSpace=wrap;rounded=0;" vertex="1" parent="1">
          <mxGeometry x="360" y="140" width="60" height="20" as="geometry" />
        </mxCell>
        <mxCell id="CSpzwq8cVmCG15Z9Z8bz-1" value="Type" style="rounded=0;whiteSpace=wrap;html=1;" vertex="1" parent="1">
          <mxGeometry x="150" y="180" width="30" height="30" as="geometry" />
        </mxCell>
        <mxCell id="CSpzwq8cVmCG15Z9Z8bz-2" value="" style="shape=curlyBracket;whiteSpace=wrap;html=1;rounded=1;flipH=1;labelPosition=right;verticalLabelPosition=middle;align=left;verticalAlign=middle;rotation=-90;" vertex="1" parent="1">
          <mxGeometry x="155" y="155" width="20" height="30" as="geometry" />
        </mxCell>
        <mxCell id="CSpzwq8cVmCG15Z9Z8bz-3" value="1 byte" style="text;html=1;align=center;verticalAlign=middle;whiteSpace=wrap;rounded=0;fontSize=9;" vertex="1" parent="1">
          <mxGeometry x="145" y="140" width="40" height="20" as="geometry" />
        </mxCell>
        <mxCell id="CSpzwq8cVmCG15Z9Z8bz-4" value="Attr" style="rounded=0;whiteSpace=wrap;html=1;" vertex="1" parent="1">
          <mxGeometry x="180" y="180" width="30" height="30" as="geometry" />
        </mxCell>
        <mxCell id="CSpzwq8cVmCG15Z9Z8bz-5" value="" style="shape=curlyBracket;whiteSpace=wrap;html=1;rounded=1;flipH=1;labelPosition=right;verticalLabelPosition=middle;align=left;verticalAlign=middle;rotation=-90;" vertex="1" parent="1">
          <mxGeometry x="185" y="155" width="20" height="30" as="geometry" />
        </mxCell>
        <mxCell id="CSpzwq8cVmCG15Z9Z8bz-6" value="1 byte" style="text;html=1;align=center;verticalAlign=middle;whiteSpace=wrap;rounded=0;fontSize=9;" vertex="1" parent="1">
          <mxGeometry x="175" y="140" width="40" height="20" as="geometry" />
        </mxCell>
        <mxCell id="CSpzwq8cVmCG15Z9Z8bz-7" value="Unused" style="rounded=0;whiteSpace=wrap;html=1;" vertex="1" parent="1">
          <mxGeometry x="570" y="180" width="60" height="30" as="geometry" />
        </mxCell>
        <mxCell id="CSpzwq8cVmCG15Z9Z8bz-8" value="" style="shape=curlyBracket;whiteSpace=wrap;html=1;rounded=1;flipH=1;labelPosition=right;verticalLabelPosition=middle;align=left;verticalAlign=middle;rotation=-90;" vertex="1" parent="1">
          <mxGeometry x="590" y="140" width="20" height="60" as="geometry" />
        </mxCell>
        <mxCell id="CSpzwq8cVmCG15Z9Z8bz-9" value="2 bytes" style="text;html=1;align=center;verticalAlign=middle;whiteSpace=wrap;rounded=0;" vertex="1" parent="1">
          <mxGeometry x="570" y="140" width="60" height="20" as="geometry" />
        </mxCell>
        <mxCell id="CSpzwq8cVmCG15Z9Z8bz-10" value="L_Page" style="rounded=0;whiteSpace=wrap;html=1;" vertex="1" parent="1">
          <mxGeometry x="150" y="210" width="60" height="30" as="geometry" />
        </mxCell>
        <mxCell id="CSpzwq8cVmCG15Z9Z8bz-12" value="2 bytes" style="text;html=1;align=center;verticalAlign=middle;whiteSpace=wrap;rounded=0;" vertex="1" parent="1">
          <mxGeometry x="150" y="260" width="60" height="20" as="geometry" />
        </mxCell>
        <mxCell id="CSpzwq8cVmCG15Z9Z8bz-13" value="L_Offset" style="rounded=0;whiteSpace=wrap;html=1;" vertex="1" parent="1">
          <mxGeometry x="210" y="210" width="60" height="30" as="geometry" />
        </mxCell>
        <mxCell id="CSpzwq8cVmCG15Z9Z8bz-14" value="" style="shape=curlyBracket;whiteSpace=wrap;html=1;rounded=1;flipH=1;labelPosition=right;verticalLabelPosition=middle;align=left;verticalAlign=middle;rotation=90;" vertex="1" parent="1">
          <mxGeometry x="230" y="220" width="20" height="60" as="geometry" />
        </mxCell>
        <mxCell id="CSpzwq8cVmCG15Z9Z8bz-15" value="2 bytes" style="text;html=1;align=center;verticalAlign=middle;whiteSpace=wrap;rounded=0;" vertex="1" parent="1">
          <mxGeometry x="210" y="260" width="60" height="20" as="geometry" />
        </mxCell>
        <mxCell id="CSpzwq8cVmCG15Z9Z8bz-16" value="" style="shape=curlyBracket;whiteSpace=wrap;html=1;rounded=1;flipH=1;labelPosition=right;verticalLabelPosition=middle;align=left;verticalAlign=middle;rotation=90;" vertex="1" parent="1">
          <mxGeometry x="170" y="220" width="20" height="60" as="geometry" />
        </mxCell>
        <mxCell id="CSpzwq8cVmCG15Z9Z8bz-23" value="R_Page" style="rounded=0;whiteSpace=wrap;html=1;" vertex="1" parent="1">
          <mxGeometry x="270" y="210" width="60" height="30" as="geometry" />
        </mxCell>
        <mxCell id="CSpzwq8cVmCG15Z9Z8bz-24" value="2 bytes" style="text;html=1;align=center;verticalAlign=middle;whiteSpace=wrap;rounded=0;" vertex="1" parent="1">
          <mxGeometry x="280" y="260" width="60" height="20" as="geometry" />
        </mxCell>
        <mxCell id="CSpzwq8cVmCG15Z9Z8bz-25" value="R_Offset" style="rounded=0;whiteSpace=wrap;html=1;" vertex="1" parent="1">
          <mxGeometry x="330" y="210" width="60" height="30" as="geometry" />
        </mxCell>
        <mxCell id="CSpzwq8cVmCG15Z9Z8bz-26" value="" style="shape=curlyBracket;whiteSpace=wrap;html=1;rounded=1;flipH=1;labelPosition=right;verticalLabelPosition=middle;align=left;verticalAlign=middle;rotation=90;" vertex="1" parent="1">
          <mxGeometry x="350" y="220" width="20" height="60" as="geometry" />
        </mxCell>
        <mxCell id="CSpzwq8cVmCG15Z9Z8bz-27" value="2 bytes" style="text;html=1;align=center;verticalAlign=middle;whiteSpace=wrap;rounded=0;" vertex="1" parent="1">
          <mxGeometry x="330" y="260" width="60" height="20" as="geometry" />
        </mxCell>
        <mxCell id="CSpzwq8cVmCG15Z9Z8bz-28" value="" style="shape=curlyBracket;whiteSpace=wrap;html=1;rounded=1;flipH=1;labelPosition=right;verticalLabelPosition=middle;align=left;verticalAlign=middle;rotation=90;" vertex="1" parent="1">
          <mxGeometry x="290" y="220" width="20" height="60" as="geometry" />
        </mxCell>
        <mxCell id="CSpzwq8cVmCG15Z9Z8bz-29" value="Value" style="rounded=0;whiteSpace=wrap;html=1;" vertex="1" parent="1">
          <mxGeometry x="390" y="210" width="240" height="30" as="geometry" />
        </mxCell>
        <mxCell id="CSpzwq8cVmCG15Z9Z8bz-30" value="" style="shape=curlyBracket;whiteSpace=wrap;html=1;rounded=1;flipH=1;labelPosition=right;verticalLabelPosition=middle;align=left;verticalAlign=middle;rotation=90;" vertex="1" parent="1">
          <mxGeometry x="500" y="130" width="20" height="240" as="geometry" />
        </mxCell>
        <mxCell id="CSpzwq8cVmCG15Z9Z8bz-31" value="8 bytes" style="text;html=1;align=center;verticalAlign=middle;whiteSpace=wrap;rounded=0;" vertex="1" parent="1">
          <mxGeometry x="480" y="260" width="60" height="20" as="geometry" />
        </mxCell>
        <mxCell id="CSpzwq8cVmCG15Z9Z8bz-35" value="" style="group" vertex="1" connectable="0" parent="1">
          <mxGeometry x="365" y="330" width="80" height="60" as="geometry" />
        </mxCell>
        <mxCell id="CSpzwq8cVmCG15Z9Z8bz-32" value="Index Row" style="rounded=0;whiteSpace=wrap;html=1;fillColor=#a20025;fontColor=#ffffff;strokeColor=#6F0000;" vertex="1" parent="CSpzwq8cVmCG15Z9Z8bz-35">
          <mxGeometry width="80" height="30" as="geometry" />
        </mxCell>
        <mxCell id="CSpzwq8cVmCG15Z9Z8bz-33" value="L" style="rounded=0;whiteSpace=wrap;html=1;fillColor=#0050ef;fontColor=#ffffff;strokeColor=#001DBC;" vertex="1" parent="CSpzwq8cVmCG15Z9Z8bz-35">
          <mxGeometry y="30" width="40" height="30" as="geometry" />
        </mxCell>
        <mxCell id="CSpzwq8cVmCG15Z9Z8bz-34" value="R" style="rounded=0;whiteSpace=wrap;html=1;fillColor=#d80073;fontColor=#ffffff;strokeColor=#A50040;" vertex="1" parent="CSpzwq8cVmCG15Z9Z8bz-35">
          <mxGeometry x="40" y="30" width="40" height="30" as="geometry" />
        </mxCell>
        <mxCell id="rdDtNYKMKcbGIr62X7HY-1" value="" style="group" vertex="1" connectable="0" parent="1">
          <mxGeometry x="140" y="485" width="80" height="60" as="geometry" />
        </mxCell>
        <mxCell id="rdDtNYKMKcbGIr62X7HY-2" value="Index Row" style="rounded=0;whiteSpace=wrap;html=1;fillColor=#0050ef;fontColor=#ffffff;strokeColor=#001DBC;" vertex="1" parent="rdDtNYKMKcbGIr62X7HY-1">
          <mxGeometry width="80" height="30" as="geometry" />
        </mxCell>
        <mxCell id="rdDtNYKMKcbGIr62X7HY-3" value="L" style="rounded=0;whiteSpace=wrap;html=1;fillColor=#0050ef;fontColor=#ffffff;strokeColor=#001DBC;" vertex="1" parent="rdDtNYKMKcbGIr62X7HY-1">
          <mxGeometry y="30" width="40" height="30" as="geometry" />
        </mxCell>
        <mxCell id="rdDtNYKMKcbGIr62X7HY-4" value="R" style="rounded=0;whiteSpace=wrap;html=1;fillColor=#d80073;fontColor=#ffffff;strokeColor=#A50040;" vertex="1" parent="rdDtNYKMKcbGIr62X7HY-1">
          <mxGeometry x="40" y="30" width="40" height="30" as="geometry" />
        </mxCell>
        <mxCell id="rdDtNYKMKcbGIr62X7HY-5" value="" style="group" vertex="1" connectable="0" parent="1">
          <mxGeometry x="415" y="485" width="80" height="60" as="geometry" />
        </mxCell>
        <mxCell id="rdDtNYKMKcbGIr62X7HY-6" value="Index Row" style="rounded=0;whiteSpace=wrap;html=1;fillColor=#0050ef;fontColor=#ffffff;strokeColor=#001DBC;" vertex="1" parent="rdDtNYKMKcbGIr62X7HY-5">
          <mxGeometry width="80" height="30" as="geometry" />
        </mxCell>
        <mxCell id="rdDtNYKMKcbGIr62X7HY-7" value="L" style="rounded=0;whiteSpace=wrap;html=1;fillColor=#0050ef;fontColor=#ffffff;strokeColor=#001DBC;" vertex="1" parent="rdDtNYKMKcbGIr62X7HY-5">
          <mxGeometry y="30" width="40" height="30" as="geometry" />
        </mxCell>
        <mxCell id="rdDtNYKMKcbGIr62X7HY-8" value="R" style="rounded=0;whiteSpace=wrap;html=1;fillColor=#d80073;fontColor=#ffffff;strokeColor=#A50040;" vertex="1" parent="rdDtNYKMKcbGIr62X7HY-5">
          <mxGeometry x="40" y="30" width="40" height="30" as="geometry" />
        </mxCell>
        <mxCell id="rdDtNYKMKcbGIr62X7HY-9" value="" style="group" vertex="1" connectable="0" parent="1">
          <mxGeometry x="230" y="400" width="80" height="60" as="geometry" />
        </mxCell>
        <mxCell id="rdDtNYKMKcbGIr62X7HY-10" value="Index Row" style="rounded=0;whiteSpace=wrap;html=1;fillColor=#0050ef;fontColor=#ffffff;strokeColor=#001DBC;" vertex="1" parent="rdDtNYKMKcbGIr62X7HY-9">
          <mxGeometry width="80" height="30" as="geometry" />
        </mxCell>
        <mxCell id="rdDtNYKMKcbGIr62X7HY-11" value="L" style="rounded=0;whiteSpace=wrap;html=1;fillColor=#0050ef;fontColor=#ffffff;strokeColor=#001DBC;" vertex="1" parent="rdDtNYKMKcbGIr62X7HY-9">
          <mxGeometry y="30" width="40" height="30" as="geometry" />
        </mxCell>
        <mxCell id="rdDtNYKMKcbGIr62X7HY-12" value="R" style="rounded=0;whiteSpace=wrap;html=1;fillColor=#d80073;fontColor=#ffffff;strokeColor=#A50040;" vertex="1" parent="rdDtNYKMKcbGIr62X7HY-9">
          <mxGeometry x="40" y="30" width="40" height="30" as="geometry" />
        </mxCell>
        <mxCell id="rdDtNYKMKcbGIr62X7HY-13" value="" style="group" vertex="1" connectable="0" parent="1">
          <mxGeometry x="585" y="485" width="80" height="60" as="geometry" />
        </mxCell>
        <mxCell id="rdDtNYKMKcbGIr62X7HY-14" value="Index Row" style="rounded=0;whiteSpace=wrap;html=1;fillColor=#d80073;fontColor=#ffffff;strokeColor=#A50040;" vertex="1" parent="rdDtNYKMKcbGIr62X7HY-13">
          <mxGeometry width="80" height="30" as="geometry" />
        </mxCell>
        <mxCell id="rdDtNYKMKcbGIr62X7HY-15" value="L" style="rounded=0;whiteSpace=wrap;html=1;fillColor=#0050ef;fontColor=#ffffff;strokeColor=#001DBC;" vertex="1" parent="rdDtNYKMKcbGIr62X7HY-13">
          <mxGeometry y="30" width="40" height="30" as="geometry" />
        </mxCell>
        <mxCell id="rdDtNYKMKcbGIr62X7HY-16" value="R" style="rounded=0;whiteSpace=wrap;html=1;fillColor=#d80073;fontColor=#ffffff;strokeColor=#A50040;" vertex="1" parent="rdDtNYKMKcbGIr62X7HY-13">
          <mxGeometry x="40" y="30" width="40" height="30" as="geometry" />
        </mxCell>
        <mxCell id="rdDtNYKMKcbGIr62X7HY-17" value="" style="group" vertex="1" connectable="0" parent="1">
          <mxGeometry x="495" y="400" width="80" height="60" as="geometry" />
        </mxCell>
        <mxCell id="rdDtNYKMKcbGIr62X7HY-18" value="Index Row" style="rounded=0;whiteSpace=wrap;html=1;fillColor=#d80073;fontColor=#ffffff;strokeColor=#A50040;" vertex="1" parent="rdDtNYKMKcbGIr62X7HY-17">
          <mxGeometry width="80" height="30" as="geometry" />
        </mxCell>
        <mxCell id="rdDtNYKMKcbGIr62X7HY-19" value="L" style="rounded=0;whiteSpace=wrap;html=1;fillColor=#0050ef;fontColor=#ffffff;strokeColor=#001DBC;" vertex="1" parent="rdDtNYKMKcbGIr62X7HY-17">
          <mxGeometry y="30" width="40" height="30" as="geometry" />
        </mxCell>
        <mxCell id="rdDtNYKMKcbGIr62X7HY-20" value="R" style="rounded=0;whiteSpace=wrap;html=1;fillColor=#d80073;fontColor=#ffffff;strokeColor=#A50040;" vertex="1" parent="rdDtNYKMKcbGIr62X7HY-17">
          <mxGeometry x="40" y="30" width="40" height="30" as="geometry" />
        </mxCell>
        <mxCell id="rdDtNYKMKcbGIr62X7HY-21" style="edgeStyle=orthogonalEdgeStyle;rounded=0;orthogonalLoop=1;jettySize=auto;html=1;" edge="1" parent="1" source="CSpzwq8cVmCG15Z9Z8bz-33" target="rdDtNYKMKcbGIr62X7HY-10">
          <mxGeometry relative="1" as="geometry" />
        </mxCell>
        <mxCell id="rdDtNYKMKcbGIr62X7HY-22" style="edgeStyle=orthogonalEdgeStyle;rounded=0;orthogonalLoop=1;jettySize=auto;html=1;" edge="1" parent="1" source="CSpzwq8cVmCG15Z9Z8bz-34" target="rdDtNYKMKcbGIr62X7HY-18">
          <mxGeometry relative="1" as="geometry" />
        </mxCell>
        <mxCell id="rdDtNYKMKcbGIr62X7HY-23" style="edgeStyle=orthogonalEdgeStyle;rounded=0;orthogonalLoop=1;jettySize=auto;html=1;" edge="1" parent="1" source="rdDtNYKMKcbGIr62X7HY-20" target="rdDtNYKMKcbGIr62X7HY-14">
          <mxGeometry relative="1" as="geometry" />
        </mxCell>
        <mxCell id="rdDtNYKMKcbGIr62X7HY-24" style="edgeStyle=orthogonalEdgeStyle;rounded=0;orthogonalLoop=1;jettySize=auto;html=1;exitX=0;exitY=0.5;exitDx=0;exitDy=0;" edge="1" parent="1" source="rdDtNYKMKcbGIr62X7HY-19" target="rdDtNYKMKcbGIr62X7HY-6">
          <mxGeometry relative="1" as="geometry" />
        </mxCell>
        <mxCell id="rdDtNYKMKcbGIr62X7HY-25" value="" style="group" vertex="1" connectable="0" parent="1">
          <mxGeometry x="315" y="485" width="80" height="60" as="geometry" />
        </mxCell>
        <mxCell id="rdDtNYKMKcbGIr62X7HY-26" value="Index Row" style="rounded=0;whiteSpace=wrap;html=1;fillColor=#d80073;fontColor=#ffffff;strokeColor=#A50040;" vertex="1" parent="rdDtNYKMKcbGIr62X7HY-25">
          <mxGeometry width="80" height="30" as="geometry" />
        </mxCell>
        <mxCell id="rdDtNYKMKcbGIr62X7HY-27" value="L" style="rounded=0;whiteSpace=wrap;html=1;fillColor=#0050ef;fontColor=#ffffff;strokeColor=#001DBC;" vertex="1" parent="rdDtNYKMKcbGIr62X7HY-25">
          <mxGeometry y="30" width="40" height="30" as="geometry" />
        </mxCell>
        <mxCell id="rdDtNYKMKcbGIr62X7HY-28" value="R" style="rounded=0;whiteSpace=wrap;html=1;fillColor=#d80073;fontColor=#ffffff;strokeColor=#A50040;" vertex="1" parent="rdDtNYKMKcbGIr62X7HY-25">
          <mxGeometry x="40" y="30" width="40" height="30" as="geometry" />
        </mxCell>
        <mxCell id="rdDtNYKMKcbGIr62X7HY-29" style="edgeStyle=orthogonalEdgeStyle;rounded=0;orthogonalLoop=1;jettySize=auto;html=1;entryX=0.5;entryY=0;entryDx=0;entryDy=0;" edge="1" parent="1" source="rdDtNYKMKcbGIr62X7HY-11" target="rdDtNYKMKcbGIr62X7HY-2">
          <mxGeometry relative="1" as="geometry" />
        </mxCell>
        <mxCell id="rdDtNYKMKcbGIr62X7HY-30" style="edgeStyle=orthogonalEdgeStyle;rounded=0;orthogonalLoop=1;jettySize=auto;html=1;" edge="1" parent="1" source="rdDtNYKMKcbGIr62X7HY-12" target="rdDtNYKMKcbGIr62X7HY-26">
          <mxGeometry relative="1" as="geometry" />
        </mxCell>
        <mxCell id="rdDtNYKMKcbGIr62X7HY-31" value="" style="group" vertex="1" connectable="0" parent="1">
          <mxGeometry x="365" y="610" width="80" height="60" as="geometry" />
        </mxCell>
        <mxCell id="rdDtNYKMKcbGIr62X7HY-32" value="Index Row" style="rounded=0;whiteSpace=wrap;html=1;fillColor=#a20025;fontColor=#ffffff;strokeColor=#6F0000;" vertex="1" parent="rdDtNYKMKcbGIr62X7HY-31">
          <mxGeometry width="80" height="30" as="geometry" />
        </mxCell>
        <mxCell id="rdDtNYKMKcbGIr62X7HY-33" value="L" style="rounded=0;whiteSpace=wrap;html=1;fillColor=#0050ef;fontColor=#ffffff;strokeColor=#001DBC;" vertex="1" parent="rdDtNYKMKcbGIr62X7HY-31">
          <mxGeometry y="30" width="40" height="30" as="geometry" />
        </mxCell>
        <mxCell id="rdDtNYKMKcbGIr62X7HY-34" value="R" style="rounded=0;whiteSpace=wrap;html=1;fillColor=#d80073;fontColor=#ffffff;strokeColor=#A50040;" vertex="1" parent="rdDtNYKMKcbGIr62X7HY-31">
          <mxGeometry x="40" y="30" width="40" height="30" as="geometry" />
        </mxCell>
        <mxCell id="rdDtNYKMKcbGIr62X7HY-35" value="" style="group" vertex="1" connectable="0" parent="1">
          <mxGeometry x="490" y="640" width="80" height="60" as="geometry" />
        </mxCell>
        <mxCell id="rdDtNYKMKcbGIr62X7HY-36" value="Index Row" style="rounded=0;whiteSpace=wrap;html=1;fillColor=#d80073;fontColor=#ffffff;strokeColor=#A50040;" vertex="1" parent="rdDtNYKMKcbGIr62X7HY-35">
          <mxGeometry width="80" height="30" as="geometry" />
        </mxCell>
        <mxCell id="rdDtNYKMKcbGIr62X7HY-37" value="L" style="rounded=0;whiteSpace=wrap;html=1;fillColor=#0050ef;fontColor=#ffffff;strokeColor=#001DBC;" vertex="1" parent="rdDtNYKMKcbGIr62X7HY-35">
          <mxGeometry y="30" width="40" height="30" as="geometry" />
        </mxCell>
        <mxCell id="rdDtNYKMKcbGIr62X7HY-38" value="R" style="rounded=0;whiteSpace=wrap;html=1;fillColor=#647687;fontColor=#ffffff;strokeColor=#314354;fillStyle=dots;" vertex="1" parent="rdDtNYKMKcbGIr62X7HY-35">
          <mxGeometry x="40" y="30" width="40" height="30" as="geometry" />
        </mxCell>
        <mxCell id="rdDtNYKMKcbGIr62X7HY-39" style="edgeStyle=orthogonalEdgeStyle;rounded=0;orthogonalLoop=1;jettySize=auto;html=1;entryX=0;entryY=0.5;entryDx=0;entryDy=0;" edge="1" parent="1" source="rdDtNYKMKcbGIr62X7HY-34" target="rdDtNYKMKcbGIr62X7HY-36">
          <mxGeometry relative="1" as="geometry" />
        </mxCell>
        <mxCell id="rdDtNYKMKcbGIr62X7HY-40" value="" style="group" vertex="1" connectable="0" parent="1">
          <mxGeometry x="630" y="640" width="80" height="60" as="geometry" />
        </mxCell>
        <mxCell id="rdDtNYKMKcbGIr62X7HY-41" value="Index Row" style="rounded=0;whiteSpace=wrap;html=1;fillColor=#d80073;fontColor=#ffffff;strokeColor=#A50040;" vertex="1" parent="rdDtNYKMKcbGIr62X7HY-40">
          <mxGeometry width="80" height="30" as="geometry" />
        </mxCell>
        <mxCell id="rdDtNYKMKcbGIr62X7HY-42" value="L" style="rounded=0;whiteSpace=wrap;html=1;fillColor=#647687;fontColor=#ffffff;strokeColor=#314354;fillStyle=dots;" vertex="1" parent="rdDtNYKMKcbGIr62X7HY-40">
          <mxGeometry y="30" width="40" height="30" as="geometry" />
        </mxCell>
        <mxCell id="rdDtNYKMKcbGIr62X7HY-43" value="R" style="rounded=0;whiteSpace=wrap;html=1;fillColor=#d80073;fontColor=#ffffff;strokeColor=#A50040;" vertex="1" parent="rdDtNYKMKcbGIr62X7HY-40">
          <mxGeometry x="40" y="30" width="40" height="30" as="geometry" />
        </mxCell>
        <mxCell id="rdDtNYKMKcbGIr62X7HY-46" value="" style="group" vertex="1" connectable="0" parent="1">
          <mxGeometry x="80" y="640" width="80" height="60" as="geometry" />
        </mxCell>
        <mxCell id="rdDtNYKMKcbGIr62X7HY-47" value="Index Row" style="rounded=0;whiteSpace=wrap;html=1;fillColor=#0050ef;fontColor=#ffffff;strokeColor=#001DBC;" vertex="1" parent="rdDtNYKMKcbGIr62X7HY-46">
          <mxGeometry width="80" height="30" as="geometry" />
        </mxCell>
        <mxCell id="rdDtNYKMKcbGIr62X7HY-48" value="L" style="rounded=0;whiteSpace=wrap;html=1;fillColor=#0050ef;fontColor=#ffffff;strokeColor=#001DBC;" vertex="1" parent="rdDtNYKMKcbGIr62X7HY-46">
          <mxGeometry y="30" width="40" height="30" as="geometry" />
        </mxCell>
        <mxCell id="rdDtNYKMKcbGIr62X7HY-49" value="R" style="rounded=0;whiteSpace=wrap;html=1;fillColor=#647687;fontColor=#ffffff;strokeColor=#314354;fillStyle=dots;" vertex="1" parent="rdDtNYKMKcbGIr62X7HY-46">
          <mxGeometry x="40" y="30" width="40" height="30" as="geometry" />
        </mxCell>
        <mxCell id="rdDtNYKMKcbGIr62X7HY-50" value="" style="group" vertex="1" connectable="0" parent="1">
          <mxGeometry x="220" y="640" width="80" height="60" as="geometry" />
        </mxCell>
        <mxCell id="rdDtNYKMKcbGIr62X7HY-51" value="Index Row" style="rounded=0;whiteSpace=wrap;html=1;fillColor=#0050ef;fontColor=#ffffff;strokeColor=#001DBC;" vertex="1" parent="rdDtNYKMKcbGIr62X7HY-50">
          <mxGeometry width="80" height="30" as="geometry" />
        </mxCell>
        <mxCell id="rdDtNYKMKcbGIr62X7HY-52" value="L" style="rounded=0;whiteSpace=wrap;html=1;fillColor=#647687;fontColor=#ffffff;strokeColor=#314354;fillStyle=dots;" vertex="1" parent="rdDtNYKMKcbGIr62X7HY-50">
          <mxGeometry y="30" width="40" height="30" as="geometry" />
        </mxCell>
        <mxCell id="rdDtNYKMKcbGIr62X7HY-53" value="R" style="rounded=0;whiteSpace=wrap;html=1;fillColor=#d80073;fontColor=#ffffff;strokeColor=#A50040;" vertex="1" parent="rdDtNYKMKcbGIr62X7HY-50">
          <mxGeometry x="40" y="30" width="40" height="30" as="geometry" />
        </mxCell>
        <mxCell id="rdDtNYKMKcbGIr62X7HY-55" style="edgeStyle=orthogonalEdgeStyle;rounded=0;orthogonalLoop=1;jettySize=auto;html=1;entryX=1;entryY=0.5;entryDx=0;entryDy=0;" edge="1" parent="1" source="rdDtNYKMKcbGIr62X7HY-33" target="rdDtNYKMKcbGIr62X7HY-51">
          <mxGeometry relative="1" as="geometry" />
        </mxCell>
        <mxCell id="rdDtNYKMKcbGIr62X7HY-57" value="" style="group" vertex="1" connectable="0" parent="1">
          <mxGeometry x="30" y="790" width="80" height="60" as="geometry" />
        </mxCell>
        <mxCell id="rdDtNYKMKcbGIr62X7HY-58" value="Index Row" style="rounded=0;whiteSpace=wrap;html=1;fillColor=#0050ef;fontColor=#ffffff;strokeColor=#001DBC;" vertex="1" parent="rdDtNYKMKcbGIr62X7HY-57">
          <mxGeometry width="80" height="30" as="geometry" />
        </mxCell>
        <mxCell id="rdDtNYKMKcbGIr62X7HY-59" value="L" style="rounded=0;whiteSpace=wrap;html=1;fillColor=#0050ef;fontColor=#ffffff;strokeColor=#001DBC;" vertex="1" parent="rdDtNYKMKcbGIr62X7HY-57">
          <mxGeometry y="30" width="40" height="30" as="geometry" />
        </mxCell>
        <mxCell id="rdDtNYKMKcbGIr62X7HY-60" value="R" style="rounded=0;whiteSpace=wrap;html=1;fillColor=#d80073;fontColor=#ffffff;strokeColor=#A50040;" vertex="1" parent="rdDtNYKMKcbGIr62X7HY-57">
          <mxGeometry x="40" y="30" width="40" height="30" as="geometry" />
        </mxCell>
        <mxCell id="rdDtNYKMKcbGIr62X7HY-61" style="edgeStyle=orthogonalEdgeStyle;rounded=0;orthogonalLoop=1;jettySize=auto;html=1;" edge="1" parent="1" source="rdDtNYKMKcbGIr62X7HY-48" target="rdDtNYKMKcbGIr62X7HY-58">
          <mxGeometry relative="1" as="geometry" />
        </mxCell>
        <mxCell id="rdDtNYKMKcbGIr62X7HY-62" value="" style="group" vertex="1" connectable="0" parent="1">
          <mxGeometry x="270" y="790" width="80" height="60" as="geometry" />
        </mxCell>
        <mxCell id="rdDtNYKMKcbGIr62X7HY-63" value="Index Row" style="rounded=0;whiteSpace=wrap;html=1;fillColor=#d80073;fontColor=#ffffff;strokeColor=#A50040;" vertex="1" parent="rdDtNYKMKcbGIr62X7HY-62">
          <mxGeometry width="80" height="30" as="geometry" />
        </mxCell>
        <mxCell id="rdDtNYKMKcbGIr62X7HY-64" value="L" style="rounded=0;whiteSpace=wrap;html=1;fillColor=#0050ef;fontColor=#ffffff;strokeColor=#001DBC;" vertex="1" parent="rdDtNYKMKcbGIr62X7HY-62">
          <mxGeometry y="30" width="40" height="30" as="geometry" />
        </mxCell>
        <mxCell id="rdDtNYKMKcbGIr62X7HY-65" value="R" style="rounded=0;whiteSpace=wrap;html=1;fillColor=#d80073;fontColor=#ffffff;strokeColor=#A50040;" vertex="1" parent="rdDtNYKMKcbGIr62X7HY-62">
          <mxGeometry x="40" y="30" width="40" height="30" as="geometry" />
        </mxCell>
        <mxCell id="rdDtNYKMKcbGIr62X7HY-67" value="" style="group" vertex="1" connectable="0" parent="1">
          <mxGeometry x="680" y="790" width="80" height="60" as="geometry" />
        </mxCell>
        <mxCell id="rdDtNYKMKcbGIr62X7HY-68" value="Index Row" style="rounded=0;whiteSpace=wrap;html=1;fillColor=#d80073;fontColor=#ffffff;strokeColor=#A50040;" vertex="1" parent="rdDtNYKMKcbGIr62X7HY-67">
          <mxGeometry width="80" height="30" as="geometry" />
        </mxCell>
        <mxCell id="rdDtNYKMKcbGIr62X7HY-69" value="L" style="rounded=0;whiteSpace=wrap;html=1;fillColor=#0050ef;fontColor=#ffffff;strokeColor=#001DBC;" vertex="1" parent="rdDtNYKMKcbGIr62X7HY-67">
          <mxGeometry y="30" width="40" height="30" as="geometry" />
        </mxCell>
        <mxCell id="rdDtNYKMKcbGIr62X7HY-70" value="R" style="rounded=0;whiteSpace=wrap;html=1;fillColor=#d80073;fontColor=#ffffff;strokeColor=#A50040;" vertex="1" parent="rdDtNYKMKcbGIr62X7HY-67">
          <mxGeometry x="40" y="30" width="40" height="30" as="geometry" />
        </mxCell>
        <mxCell id="rdDtNYKMKcbGIr62X7HY-71" style="edgeStyle=orthogonalEdgeStyle;rounded=0;orthogonalLoop=1;jettySize=auto;html=1;" edge="1" parent="1" source="rdDtNYKMKcbGIr62X7HY-43" target="rdDtNYKMKcbGIr62X7HY-68">
          <mxGeometry relative="1" as="geometry" />
        </mxCell>
        <mxCell id="rdDtNYKMKcbGIr62X7HY-72" value="" style="group" vertex="1" connectable="0" parent="1">
          <mxGeometry x="440" y="790" width="80" height="60" as="geometry" />
        </mxCell>
        <mxCell id="rdDtNYKMKcbGIr62X7HY-73" value="Index Row" style="rounded=0;whiteSpace=wrap;html=1;fillColor=#0050ef;fontColor=#ffffff;strokeColor=#001DBC;" vertex="1" parent="rdDtNYKMKcbGIr62X7HY-72">
          <mxGeometry width="80" height="30" as="geometry" />
        </mxCell>
        <mxCell id="rdDtNYKMKcbGIr62X7HY-74" value="L" style="rounded=0;whiteSpace=wrap;html=1;fillColor=#0050ef;fontColor=#ffffff;strokeColor=#001DBC;" vertex="1" parent="rdDtNYKMKcbGIr62X7HY-72">
          <mxGeometry y="30" width="40" height="30" as="geometry" />
        </mxCell>
        <mxCell id="rdDtNYKMKcbGIr62X7HY-75" value="R" style="rounded=0;whiteSpace=wrap;html=1;fillColor=#d80073;fontColor=#ffffff;strokeColor=#A50040;" vertex="1" parent="rdDtNYKMKcbGIr62X7HY-72">
          <mxGeometry x="40" y="30" width="40" height="30" as="geometry" />
        </mxCell>
        <mxCell id="rdDtNYKMKcbGIr62X7HY-78" style="edgeStyle=orthogonalEdgeStyle;rounded=0;orthogonalLoop=1;jettySize=auto;html=1;" edge="1" parent="1" source="rdDtNYKMKcbGIr62X7HY-37" target="rdDtNYKMKcbGIr62X7HY-73">
          <mxGeometry relative="1" as="geometry" />
        </mxCell>
        <mxCell id="rdDtNYKMKcbGIr62X7HY-79" style="edgeStyle=orthogonalEdgeStyle;rounded=0;orthogonalLoop=1;jettySize=auto;html=1;" edge="1" parent="1" source="rdDtNYKMKcbGIr62X7HY-53" target="rdDtNYKMKcbGIr62X7HY-63">
          <mxGeometry relative="1" as="geometry" />
        </mxCell>
        <mxCell id="rdDtNYKMKcbGIr62X7HY-80" style="edgeStyle=orthogonalEdgeStyle;rounded=0;orthogonalLoop=1;jettySize=auto;html=1;entryX=1;entryY=0.5;entryDx=0;entryDy=0;" edge="1" parent="1" source="rdDtNYKMKcbGIr62X7HY-52" target="rdDtNYKMKcbGIr62X7HY-47">
          <mxGeometry relative="1" as="geometry" />
        </mxCell>
        <mxCell id="rdDtNYKMKcbGIr62X7HY-81" style="edgeStyle=orthogonalEdgeStyle;rounded=0;orthogonalLoop=1;jettySize=auto;html=1;entryX=0;entryY=0.5;entryDx=0;entryDy=0;" edge="1" parent="1" source="rdDtNYKMKcbGIr62X7HY-38" target="rdDtNYKMKcbGIr62X7HY-41">
          <mxGeometry relative="1" as="geometry" />
        </mxCell>
      </root>
    </mxGraphModel>
  </diagram>
</mxfile>
